<svg width="24" height="24" viewBox="0 0 24 24" fill="none" xmlns="http://www.w3.org/2000/svg">
<mask id="mask0_491_31357" style="mask-type:alpha" maskUnits="userSpaceOnUse" x="0" y="0" width="24" height="24">
<rect width="24" height="24" fill="#D9D9D9"/>
</mask>
<g mask="url(#mask0_491_31357)">
<path d="M11.95 16.4742C12.3 16.4742 12.5958 16.3539 12.8375 16.1133C13.0792 15.8728 13.2 15.5783 13.2 15.2298C13.2 14.8814 13.0792 14.5869 12.8375 14.3463C12.5958 14.1057 12.3 13.9854 11.95 13.9854C11.6 13.9854 11.3042 14.1057 11.0625 14.3463C10.8208 14.5869 10.7 14.8814 10.7 15.2298C10.7 15.5783 10.8208 15.8728 11.0625 16.1133C11.3042 16.3539 11.6 16.4742 11.95 16.4742ZM11.05 12.6415H12.9C12.9 12.094 12.9625 11.6626 13.0875 11.3474C13.2125 11.0321 13.5667 10.6007 14.15 10.0532C14.5833 9.62182 14.925 9.21117 15.175 8.82127C15.425 8.43136 15.55 7.96265 15.55 7.41512C15.55 6.48598 15.2083 5.77254 14.525 5.27479C13.8417 4.77703 13.0333 4.52816 12.1 4.52816C11.15 4.52816 10.3792 4.77703 9.7875 5.27479C9.19583 5.77254 8.78333 6.36984 8.55 7.06669L10.2 7.71377C10.2833 7.41512 10.4708 7.09158 10.7625 6.74315C11.0542 6.39473 11.5 6.22052 12.1 6.22052C12.6333 6.22052 13.0333 6.36569 13.3 6.65605C13.5667 6.9464 13.7 7.26579 13.7 7.61422C13.7 7.94605 13.6 8.25715 13.4 8.54751C13.2 8.83786 12.95 9.10748 12.65 9.35635C11.9167 10.0034 11.4667 10.4929 11.3 10.8247C11.1333 11.1566 11.05 11.7622 11.05 12.6415ZM12 20.4562C10.6167 20.4562 9.31667 20.1949 8.1 19.6723C6.88333 19.1496 5.825 18.4403 4.925 17.5444C4.025 16.6484 3.3125 15.5948 2.7875 14.3836C2.2625 13.1725 2 11.8783 2 10.5012C2 9.12407 2.2625 7.82991 2.7875 6.61872C3.3125 5.40752 4.025 4.35395 4.925 3.45799C5.825 2.56204 6.88333 1.85274 8.1 1.3301C9.31667 0.807462 10.6167 0.546143 12 0.546143C13.3833 0.546143 14.6833 0.807462 15.9 1.3301C17.1167 1.85274 18.175 2.56204 19.075 3.45799C19.975 4.35395 20.6875 5.40752 21.2125 6.61872C21.7375 7.82991 22 9.12407 22 10.5012C22 11.8783 21.7375 13.1725 21.2125 14.3836C20.6875 15.5948 19.975 16.6484 19.075 17.5444C18.175 18.4403 17.1167 19.1496 15.9 19.6723C14.6833 20.1949 13.3833 20.4562 12 20.4562ZM12 18.4652C14.2333 18.4652 16.125 17.6937 17.675 16.1507C19.225 14.6076 20 12.7245 20 10.5012C20 8.27789 19.225 6.39473 17.675 4.8517C16.125 3.30867 14.2333 2.53715 12 2.53715C9.76667 2.53715 7.875 3.30867 6.325 4.8517C4.775 6.39473 4 8.27789 4 10.5012C4 12.7245 4.775 14.6076 6.325 16.1507C7.875 17.6937 9.76667 18.4652 12 18.4652Z" fill="#222222"/>
</g>
</svg>
