<svg width="22" height="22" viewBox="0 0 22 22" fill="none" xmlns="http://www.w3.org/2000/svg">
<path d="M15.2077 6.94825L9.16683 12.9891L5.876 9.70742L4.5835 10.9999L9.16683 15.5833L16.5002 8.24992L15.2077 6.94825ZM11.0002 1.83325C5.94016 1.83325 1.8335 5.93992 1.8335 10.9999C1.8335 16.0599 5.94016 20.1666 11.0002 20.1666C16.0602 20.1666 20.1668 16.0599 20.1668 10.9999C20.1668 5.93992 16.0602 1.83325 11.0002 1.83325ZM11.0002 18.3333C6.9485 18.3333 3.66683 15.0516 3.66683 10.9999C3.66683 6.94825 6.9485 3.66659 11.0002 3.66659C15.0518 3.66659 18.3335 6.94825 18.3335 10.9999C18.3335 15.0516 15.0518 18.3333 11.0002 18.3333Z" fill="white"/>
</svg>
