<svg width="22" height="22" viewBox="0 0 22 22" fill="none" xmlns="http://www.w3.org/2000/svg">
<path d="M10.0835 13.75H11.9168V15.5834H10.0835V13.75ZM10.0835 6.41671H11.9168V11.9167H10.0835V6.41671ZM10.991 1.83337C5.931 1.83337 1.8335 5.94004 1.8335 11C1.8335 16.06 5.931 20.1667 10.991 20.1667C16.0602 20.1667 20.1668 16.06 20.1668 11C20.1668 5.94004 16.0602 1.83337 10.991 1.83337ZM11.0002 18.3334C6.9485 18.3334 3.66683 15.0517 3.66683 11C3.66683 6.94837 6.9485 3.66671 11.0002 3.66671C15.0518 3.66671 18.3335 6.94837 18.3335 11C18.3335 15.0517 15.0518 18.3334 11.0002 18.3334Z" fill="white"/>
</svg>
